<svg xmlns="http://www.w3.org/2000/svg" width="16" height="16" fill="none" viewBox="0 0 16 16"><g fill="#212B36" clip-path="url(#clip0)"><path d="M5.667 3.833H7a.5.5 0 100-1H5.667c-.28 0-.5.22-.5.5 0 .274.22.5.5.5zm-.498 1.834c0 .273.22.5.5.5h4.666a.5.5 0 100-1H5.67c-.28 0-.5.22-.5.5zM5.667 8.5h4.666a.5.5 0 100-1H5.667c-.28 0-.5.22-.5.5 0 .273.22.5.5.5z"/><path d="M15.911 10.667l-2.246-3.854V1.327c0-.74-.6-1.334-1.334-1.334H3.665a1.33 1.33 0 00-1.334 1.334v5.48l-2.24 3.848a.803.803 0 00-.094.333v4c0 .546.447 1 1 1h14c.547 0 1-.454 1-1v-4a.802.802 0 00-.093-.333l.007.012zm-3.746-9.334a.17.17 0 01.166.167v7.167c0 .366.293.666.667.666a.708.708 0 00.473-.2l.893 1.534h-2.7c-.553 0-1 .446-1 1 0 .546-.453 1-1 1H6.332c-.553 0-1-.454-1-1 0-.554-.453-1-1-1h-2.7l.894-1.534c.12.127.293.2.473.2.367 0 .667-.3.667-.666L3.65 1.5c-.006-.093.074-.167.16-.173 0-.007 0 0 0 0l8.354.006z"/></g><defs><clipPath id="clip0"><path fill="#212B36" d="M0 0h16v16H0z"/></clipPath></defs></svg>