<svg xmlns="http://www.w3.org/2000/svg" width="24" height="24" fill="none" viewBox="0 0 24 24"><path fill="#212B36" fill-rule="evenodd" d="M4 6.193c0-.33.267-.597.597-.597h14.806c.33 0 .597.267.597.597v12.161c0 .33-.267.598-.597.598H4.597A.597.597 0 014 18.354V6.194zm1.193.597v10.967h13.613V6.79H5.194z" clip-rule="evenodd"/><path fill="#212B36" fill-rule="evenodd" d="M4 6.193c0-.33.267-.597.597-.597h14.806c.33 0 .597.267.597.597v3.722c0 .33-.267.597-.597.597H4.597A.597.597 0 014 9.915V6.193zm1.193.597v2.527h13.613V6.79H5.194z" clip-rule="evenodd"/><path fill="#212B36" fill-rule="evenodd" d="M7.783 4c.33 0 .597.267.597.597v2.527a.597.597 0 11-1.194 0V4.597c0-.33.267-.597.597-.597zm8.499 0c.33 0 .597.267.597.597v2.527a.597.597 0 11-1.194 0V4.597c0-.33.267-.597.597-.597z" clip-rule="evenodd"/></svg>