<svg xmlns="http://www.w3.org/2000/svg" width="24" height="24" fill="none" viewBox="0 0 24 24"><path fill="#212B36" d="M17.657 6.343A7.947 7.947 0 0012 4a7.948 7.948 0 00-5.657 2.343A7.948 7.948 0 004 12c0 2.137.832 4.146 2.343 5.657A7.948 7.948 0 0012 20a7.948 7.948 0 005.657-2.343A7.948 7.948 0 0020 12a7.948 7.948 0 00-2.343-5.657zM12 18.707A6.715 6.715 0 015.293 12 6.715 6.715 0 0112 5.293 6.715 6.715 0 0118.707 12 6.715 6.715 0 0112 18.707z"/><path fill="#212B36" d="M12 8.412a.646.646 0 00-.646.647v5.883a.646.646 0 101.292 0V9.058A.646.646 0 0012 8.412z"/><path fill="#212B36" d="M14.941 11.354H9.06a.646.646 0 100 1.292h5.883a.646.646 0 100-1.292z"/></svg>