<svg xmlns="http://www.w3.org/2000/svg" width="24" height="24" fill="none" viewBox="0 0 24 24"><path fill="#212B36" d="M17.657 6.343A7.947 7.947 0 0012 4a7.948 7.948 0 00-5.657 2.343A7.948 7.948 0 004 12c0 2.137.832 4.146 2.343 5.657A7.948 7.948 0 0012 20a7.948 7.948 0 005.657-2.343A7.948 7.948 0 0020 12a7.948 7.948 0 00-2.343-5.657zM12 18.707A6.715 6.715 0 015.293 12 6.715 6.715 0 0112 5.293 6.715 6.715 0 0118.707 12 6.715 6.715 0 0112 18.707z"/><path fill="#212B36" d="M14.663 13.75l-2.017-2.018V7.588a.646.646 0 10-1.292 0V12c0 .171.068.336.189.457l2.206 2.206a.644.644 0 00.914 0 .646.646 0 000-.914z"/></svg>