<svg xmlns="http://www.w3.org/2000/svg" width="22" height="22" fill="none" viewBox="0 0 22 22"><path fill="#8B9396" d="M12.263 5.806H6.651A1.66 1.66 0 0 0 5 7.457v9.892A1.66 1.66 0 0 0 6.651 19h5.612a1.66 1.66 0 0 0 1.652-1.651V7.457c0-.923-.746-1.651-1.652-1.651zm.994 11.525c0 .55-.443.994-.994.994H6.651a.994.994 0 0 1-.994-.994V7.457c0-.55.444-.994.994-.994h5.612c.55 0 .994.444.994.994v9.874zM16.72 4.65v9.892a1.66 1.66 0 0 1-1.651 1.651.337.337 0 0 1-.338-.337c0-.196.142-.338.338-.338.55 0 .994-.444.994-.994V4.651a.994.994 0 0 0-.994-.994H9.457a.993.993 0 0 0-.994.994.337.337 0 0 1-.338.338.327.327 0 0 1-.337-.338A1.688 1.688 0 0 1 9.458 3h5.61a1.66 1.66 0 0 1 1.652 1.65z"/></svg>