<svg xmlns="http://www.w3.org/2000/svg" width="24" height="24" fill="none" viewBox="0 0 24 24"><path fill="#212B36" d="M8.732 4H6.28A2.283 2.283 0 0 0 4 6.28v2.452a.646.646 0 0 0 1.293 0V6.28c0-.544.443-.987.987-.987h2.452a.646.646 0 0 0 0-1.293zm8.988 0h-2.452a.646.646 0 0 0 0 1.293h2.452a.99.99 0 0 1 .988.987v2.452a.646.646 0 1 0 1.292 0V6.28A2.283 2.283 0 0 0 17.72 4zm1.634 10.622a.646.646 0 0 0-.646.646v2.451a.989.989 0 0 1-.988.988h-2.452a.646.646 0 1 0 0 1.293h2.452A2.283 2.283 0 0 0 20 17.72v-2.452a.646.646 0 0 0-.646-.646zM8.732 18.707H6.28a.989.989 0 0 1-.987-.988v-2.45a.646.646 0 1 0-1.293 0v2.45A2.283 2.283 0 0 0 6.28 20h2.452a.646.646 0 1 0 0-1.292z"/></svg>