<svg xmlns="http://www.w3.org/2000/svg" width="22" height="18" fill="none" viewBox="0 0 22 18"><path fill="#212B36" stroke="#212B36" stroke-width=".2" d="M20.935 8.16H1.839a.84.84 0 000 1.68h19.096a.84.84 0 100-1.68z"/><path fill="#212B36" stroke="#212B36" stroke-width=".2" d="M3.026 9l6.568-6.567a.84.84 0 10-1.187-1.187l-7.16 7.16a.84.84 0 000 1.187l7.16 7.161a.836.836 0 001.187 0 .84.84 0 000-1.187L3.026 9z"/><path fill="#212B36" d="M21.128 2.064a.835.835 0 00-.838.832v6.162c0 .46.376.832.838.832a.835.835 0 00.839-.832V2.896a.835.835 0 00-.838-.832z"/></svg>