<svg xmlns="http://www.w3.org/2000/svg" width="22" height="22" fill="none" viewBox="0 0 22 22"><path fill="#8B9396" d="M6.483 12.13a.5.5 0 1 0-.966.26l.966-.26zm9.666-3.098a.5.5 0 0 0-.232.972l.232-.972zM6.5 12a.5.5 0 0 0-1 0h1zm13 0a.5.5 0 0 0-1 0h1zm-13.983.39c.262.971 1.228 1.74 2.42 2.258 1.224.53 2.811.852 4.538.852v-1c-1.611 0-3.06-.302-4.14-.77-1.11-.48-1.712-1.081-1.852-1.6l-.966.26zm6.958 3.11c1.868 0 3.577-.378 4.836-.99 1.218-.593 2.189-1.5 2.189-2.635h-1c0 .525-.485 1.18-1.626 1.735-1.1.535-2.653.89-4.399.89v1zm7.025-3.625c0-.646-.384-1.25-.951-1.724-.577-.482-1.394-.878-2.4-1.12l-.232.973c.89.213 1.557.552 1.99.914.442.37.593.718.593.957h1zm-4-4.995c0 .524-.483 1.178-1.62 1.732-1.094.534-2.642.888-4.38.888v1c1.861 0 3.564-.377 4.82-.99 1.213-.592 2.18-1.498 2.18-2.63h-1zm-6 2.62c-1.738 0-3.286-.354-4.38-.888C3.982 8.058 3.5 7.404 3.5 6.88h-1c0 1.132.967 2.038 2.18 2.63 1.256.613 2.958.99 4.82.99v-1zm-6-2.62c0-.508.461-1.106 1.6-1.603C6.196 4.8 7.75 4.5 9.5 4.5v-1c-1.85 0-3.546.313-4.8.86-1.211.53-2.2 1.372-2.2 2.52h1zm6-2.38c1.75 0 3.304.299 4.4.777 1.139.497 1.6 1.095 1.6 1.603h1c0-1.148-.989-1.99-2.2-2.52-1.254-.547-2.95-.86-4.8-.86v1zm-4 7.5v2h1v-2h-1zm0 2c0 1.145.977 2.02 2.19 2.58 1.256.578 2.955.92 4.81.92v-1c-1.745 0-3.296-.324-4.39-.829C6.972 15.147 6.5 14.522 6.5 14h-1zm7 3.5c1.855 0 3.555-.342 4.81-.92 1.213-.56 2.19-1.435 2.19-2.58h-1c0 .522-.473 1.147-1.61 1.671-1.095.505-2.645.829-4.39.829v1zm7-3.5v-2h-1v2h1zm-1-2c0 .515-.48 1.163-1.618 1.713-1.095.53-2.643.882-4.382.882v1c1.86 0 3.563-.374 4.818-.981C18.53 14.027 19.5 13.128 19.5 12h-1zm-6 2.595c-1.74 0-3.287-.352-4.382-.882C6.98 13.163 6.5 12.515 6.5 12h-1c0 1.128.97 2.027 2.182 2.614 1.255.607 2.957.981 4.818.981v-1zm-3-5c-1.74 0-3.287-.352-4.382-.881C3.98 8.164 3.5 7.515 3.5 7h-1c0 1.128.97 2.027 2.182 2.614 1.255.607 2.957.981 4.818.981v-1zM2.5 7v2h1V7h-1zm0 2c0 1.145.977 2.02 2.19 2.58 1.256.578 2.955.92 4.81.92v-1c-1.745 0-3.296-.324-4.39-.829C3.972 10.147 3.5 9.522 3.5 9h-1zm7 3.5c1.855 0 3.555-.342 4.81-.92 1.213-.56 2.19-1.435 2.19-2.58h-1c0 .522-.473 1.147-1.61 1.671-1.095.505-2.645.829-4.39.829v1zm7-3.5V7h-1v2h1zm-1-2c0 .515-.48 1.163-1.618 1.714-1.095.53-2.643.881-4.382.881v1c1.86 0 3.563-.374 4.818-.981C15.53 9.027 16.5 8.128 16.5 7h-1z"/></svg>