<svg xmlns="http://www.w3.org/2000/svg" width="24" height="24" fill="none" viewBox="0 0 24 24"><path fill="#212B36" d="M18.537 8.902H5.463a.646.646 0 0 0 0 1.293h13.074a.646.646 0 0 0 0-1.293zm0 4.903H5.463a.646.646 0 1 0 0 1.293h13.074a.646.646 0 0 0 0-1.293z"/><path fill="#212B36" d="M10.437 4.004a.646.646 0 0 0-.714.571L8.09 19.283a.646.646 0 1 0 1.285.142l1.634-14.707a.646.646 0 0 0-.57-.714zm4.903 0a.646.646 0 0 0-.714.571l-1.634 14.707a.646.646 0 0 0 1.285.143L15.91 4.718a.646.646 0 0 0-.571-.714z"/></svg>