<svg width="22" height="22" xmlns="http://www.w3.org/2000/svg"><g fill="none" fill-rule="evenodd"><path d="M0 0h22v22H0z"/><path d="M17.92 10.515a.46.46 0 0 1 .124.337.52.52 0 0 1-.139.336.717.717 0 0 1-.154.096.403.403 0 0 1-.168.036.49.49 0 0 1-.19-.036.363.363 0 0 1-.147-.11l-.63-.66v7.017a.45.45 0 0 1-.14.33.45.45 0 0 1-.329.139h-3.28a.45.45 0 0 1-.33-.14.45.45 0 0 1-.14-.329v-4.687H8.662l-.015 4.687a.45.45 0 0 1-.139.33.45.45 0 0 1-.33.139H4.913a.463.463 0 0 1-.469-.469v-7.016l-.63.659a.52.52 0 0 1-.337.139.46.46 0 0 1-.336-.125.52.52 0 0 1-.14-.336.46.46 0 0 1 .125-.337L10.2 3.146a.498.498 0 0 1 .161-.11.49.49 0 0 1 .366 0 .363.363 0 0 1 .147.11l7.046 7.369zm-2.241-.909c0-.02.004-.039.014-.058l-5.156-5.39-5.17 5.39c0 .02.002.039.006.058a.24.24 0 0 1 .008.059v7.398H7.71l.015-4.688a.45.45 0 0 1 .139-.33.45.45 0 0 1 .33-.139h4.672a.45.45 0 0 1 .33.14.45.45 0 0 1 .139.329v4.688h2.344V9.605z" fill="#8B9396"/></g></svg>