<svg xmlns="http://www.w3.org/2000/svg" width="24" height="24" fill="none" viewBox="0 0 24 24"><path fill="#212B36" stroke="#212B36" stroke-width=".2" d="M11.665 4.01h0a.567.567 0 0 1 .67 0l8.533 6.247h0a.568.568 0 0 1-.671.916h0L12 5.17l-8.197 6.002s0 0 0 0a.565.565 0 0 1-.793-.123.568.568 0 0 1 .122-.793l.055.074-.055-.074 8.533-6.247z"/><path fill="#212B36" stroke="#212B36" stroke-width=".2" d="M10.694 19.623a.567.567 0 0 1-.565.522H5.452a.568.568 0 0 1-.567-.567v-7.912a.568.568 0 0 1 1.135 0v7.344h3.541v-3.964A2.441 2.441 0 0 1 12 12.608a2.441 2.441 0 0 1 2.439 2.438v3.964h3.541v-7.344a.568.568 0 0 1 1.135 0v7.912a.568.568 0 0 1-.567.567H13.87a.568.568 0 0 1-.566-.522m-2.61 0a.439.439 0 0 0 .002-.045v-4.531c0-.719.585-1.304 1.303-1.304.719 0 1.303.585 1.303 1.303v4.532l.002.045m-2.61 0v-.002l-.1-.007.1.01v-.001zm2.61 0v.002l.1-.01-.1.007v.001z"/></svg>