<svg width="22" height="22" viewBox="0 0 22 22" xmlns="http://www.w3.org/2000/svg"><path d="M17.884 9.993c.08.085.121.198.115.314a.484.484 0 0 1-.129.312.667.667 0 0 1-.143.09.375.375 0 0 1-.157.033c-.06 0-.12-.01-.176-.033a.338.338 0 0 1-.137-.103l-.586-.614v6.53a.419.419 0 0 1-.13.307.419.419 0 0 1-.307.13h-3.052a.419.419 0 0 1-.307-.13.419.419 0 0 1-.13-.307V12.16H9.268l-.014 4.362a.419.419 0 0 1-.13.307.419.419 0 0 1-.307.13H5.78a.43.43 0 0 1-.437-.437V9.993l-.586.613a.484.484 0 0 1-.314.13.428.428 0 0 1-.312-.117.484.484 0 0 1-.13-.312.428.428 0 0 1 .116-.314L10.7 3.135a.463.463 0 0 1 .15-.102.456.456 0 0 1 .34 0c.054.022.101.057.137.102l6.557 6.858zM15.8 9.147c0-.019.003-.036.013-.054l-4.799-5.016-4.81 5.016a.26.26 0 0 0 .005.054.223.223 0 0 1 .007.055v6.885h2.168l.014-4.363a.419.419 0 0 1 .129-.307.419.419 0 0 1 .307-.13h4.348a.419.419 0 0 1 .307.13c.083.08.13.191.13.307v4.363h2.18v-6.94z" fill="#8B9396" fill-rule="nonzero"/></svg>