<svg xmlns="http://www.w3.org/2000/svg" width="24" height="24" fill="none" viewBox="0 0 24 24"><path fill="#212B36" d="M17.657 6.343A7.947 7.947 0 0 0 12 4a7.948 7.948 0 0 0-5.657 2.343A7.948 7.948 0 0 0 4 12c0 2.137.832 4.146 2.343 5.657A7.948 7.948 0 0 0 12 20a7.948 7.948 0 0 0 5.657-2.343A7.948 7.948 0 0 0 20 12a7.948 7.948 0 0 0-2.343-5.657zM12 18.707A6.715 6.715 0 0 1 5.293 12 6.715 6.715 0 0 1 12 5.293 6.715 6.715 0 0 1 18.707 12 6.715 6.715 0 0 1 12 18.707z"/><path fill="#212B36" d="M12 11.354a.646.646 0 0 0-.646.646v2.941a.646.646 0 1 0 1.292 0v-2.94a.646.646 0 0 0-.646-.647zm.457-2.752a.65.65 0 0 0-.457-.19.651.651 0 0 0-.457.19.651.651 0 0 0-.19.457.651.651 0 0 0 .646.646.65.65 0 0 0 .458-.19.65.65 0 0 0 .19-.456.651.651 0 0 0-.19-.457z"/></svg>