<svg xmlns="http://www.w3.org/2000/svg" width="24" height="24" fill="none" viewBox="0 0 24 24"><path fill="#212B36" d="M19.643 7.745l-7.354-3.677a.646.646 0 00-.578 0L4.357 7.745a.646.646 0 000 1.156l7.354 3.677a.647.647 0 00.578 0l7.354-3.677a.646.646 0 000-1.156zM12 11.277L6.09 8.323 12 5.37l5.908 2.954L12 11.277zm7.932 4.111a.646.646 0 00-.868-.29L12 18.632 4.935 15.1a.646.646 0 00-.578 1.156l7.354 3.677a.646.646 0 00.578 0l7.354-3.677a.646.646 0 00.289-.867z"/><path fill="#212B36" d="M19.932 11.71a.646.646 0 00-.868-.288L12 14.954l-7.065-3.532a.646.646 0 10-.578 1.156l7.354 3.677a.647.647 0 00.578 0l7.354-3.677a.646.646 0 00.289-.867z"/></svg>