<svg xmlns="http://www.w3.org/2000/svg" width="24" height="24" fill="none" viewBox="0 0 24 24"><path fill="#212B36" stroke="#212B36" stroke-width=".2" d="M18.434 5h-4.29a.566.566 0 0 0 0 1.131h3.725v3.724a.566.566 0 0 0 1.13 0v-4.29A.566.566 0 0 0 18.435 5zM9.855 17.869H6.131v-3.724a.566.566 0 0 0-1.131 0v4.29c0 .312.253.565.565.565h4.29a.565.565 0 1 0 0-1.131z"/><path fill="#212B36" stroke="#212B36" stroke-width=".2" d="M18.834 5.166a.566.566 0 0 0-.8 0L13.03 10.17a.566.566 0 0 0 .8.8l5.004-5.004a.566.566 0 0 0 0-.8zM10.97 13.03a.565.565 0 0 0-.8 0l-5.004 5.005a.566.566 0 0 0 .8.8l5.004-5.005a.565.565 0 0 0 0-.8z"/></svg>