<svg xmlns="http://www.w3.org/2000/svg" width="24" height="24" fill="none" viewBox="0 0 24 24"><path fill="#212B36" stroke="#212B36" stroke-width=".2" d="M19.354 11.301H4.646c-.357 0-.646.313-.646.699 0 .386.29.699.646.699h14.708c.357 0 .646-.313.646-.699 0-.386-.29-.699-.646-.699zm0-5.301H4.646C4.29 6 4 6.313 4 6.699c0 .386.29.699.646.699h14.708c.357 0 .646-.313.646-.7 0-.385-.29-.698-.646-.698zm0 10.602H4.646c-.357 0-.646.313-.646.7 0 .385.29.698.646.698h14.708c.357 0 .646-.313.646-.699 0-.386-.29-.699-.646-.699z"/></svg>