<svg xmlns="http://www.w3.org/2000/svg" width="24" height="24" fill="none" viewBox="0 0 24 24"><path fill="#212B36" stroke="#212B36" stroke-width=".2" d="M10.57 12.864H6.28a.566.566 0 100 1.132h3.725v3.724a.565.565 0 101.13 0v-4.29a.566.566 0 00-.565-.566zm7.15-2.859h-3.725V6.28a.566.566 0 10-1.13 0v4.29c0 .313.252.566.565.566h4.29a.566.566 0 100-1.131z"/><path fill="#212B36" stroke="#212B36" stroke-width=".2" d="M18.834 5.166a.566.566 0 00-.8 0L13.03 10.17a.565.565 0 10.8.8l5.004-5.005a.566.566 0 000-.8zM10.97 13.03a.566.566 0 00-.8 0l-5.004 5.005a.566.566 0 10.8.8l5.004-5.005a.566.566 0 000-.8z"/></svg>