<svg xmlns="http://www.w3.org/2000/svg" width="24" height="24" fill="none" viewBox="0 0 24 24"><path fill="#212B36" d="M10.366 12.988H5.463a.646.646 0 000 1.293H9.72v4.256a.646.646 0 001.293 0v-4.903a.646.646 0 00-.646-.646zm8.171-3.268H14.28V5.463a.646.646 0 00-1.293 0v4.903c0 .357.29.646.646.646h4.903a.646.646 0 100-1.292z"/><path fill="#212B36" d="M19.81 4.19a.646.646 0 00-.913 0l-5.72 5.719a.646.646 0 10.914.914l5.72-5.72a.646.646 0 000-.914zm-8.987 8.987a.646.646 0 00-.914 0l-5.72 5.72a.646.646 0 00.914.914l5.72-5.72a.646.646 0 000-.914z"/></svg>