<svg xmlns="http://www.w3.org/2000/svg" width="22" height="22" fill="none" viewBox="0 0 22 22"><path fill="#8B9396" fill-rule="evenodd" d="M17.271 13.367c.254.313.455.591.601.835a.73.73 0 0 1 .044.733.718.718 0 0 1-.571.424c-.264.04-.469.059-.616.059H13.99c0 .693-.244 1.284-.732 1.772a2.414 2.414 0 0 1-1.773.733 2.413 2.413 0 0 1-1.772-.733 2.414 2.414 0 0 1-.733-1.772H6.3c-.225 0-.457-.027-.696-.08a.731.731 0 0 1-.52-.403c-.117-.245-.107-.496.03-.755.163-.3.349-.586.556-.857.264-.342.552-.73.864-1.164.313-.435.469-.887.469-1.355V7.742c0-.664.115-1.286.344-1.867.23-.582.545-1.09.945-1.524.4-.434.874-.776 1.42-1.025a4.19 4.19 0 0 1 1.759-.374c.634 0 1.225.125 1.772.374a4.46 4.46 0 0 1 1.428 1.025c.406.435.723.942.953 1.524a5.04 5.04 0 0 1 .344 1.867v3.062c0 .478.149.942.447 1.391.297.45.583.84.856 1.172zm-5.786 3.574c.42 0 .78-.149 1.077-.446.298-.298.447-.657.447-1.077H9.962c0 .42.149.779.447 1.077.298.297.656.446 1.076.446zm5.347-2.52a8.157 8.157 0 0 0-.337-.425c-.322-.39-.657-.856-1.003-1.398a3.262 3.262 0 0 1-.52-1.794V7.742c0-.527-.09-1.02-.271-1.48a3.85 3.85 0 0 0-.74-1.2 3.51 3.51 0 0 0-1.106-.813c-.425-.2-.886-.3-1.384-.3-.489 0-.945.1-1.37.3-.425.2-.793.47-1.106.813a3.73 3.73 0 0 0-.732 1.2 4.102 4.102 0 0 0-.264 1.48v3.062c0 .634-.183 1.218-.55 1.75-.374.548-.76 1.088-1.157 1.619-.063.088-.12.17-.168.249h10.708v-.001z" clip-rule="evenodd"/></svg>