<svg xmlns="http://www.w3.org/2000/svg" width="22" height="22" fill="none" viewBox="0 0 22 22"><path stroke="#8B9396" d="M11 4.744c1.216 0 2.341.304 3.376.912a6.307 6.307 0 0 1 2.368 2.368 6.545 6.545 0 0 1 .912 3.376 6.545 6.545 0 0 1-.912 3.376 6.307 6.307 0 0 1-2.368 2.368 6.546 6.546 0 0 1-3.376.912 6.546 6.546 0 0 1-3.376-.912 6.428 6.428 0 0 1-2.368-2.384 6.517 6.517 0 0 1-.912-3.36c0-1.205.304-2.325.912-3.36A6.55 6.55 0 0 1 7.64 5.656 6.517 6.517 0 0 1 11 4.744z" clip-rule="evenodd"/><path fill="#8B9396" fill-rule="evenodd" d="M14.344 10.744v1.312H7.656v-1.312h6.688z" clip-rule="evenodd"/></svg>