<svg xmlns="http://www.w3.org/2000/svg" width="24" height="24" fill="none" viewBox="0 0 24 24"><path fill="#212B36" d="M15.565 5.984A6.73 6.73 0 0 0 10.775 4a6.73 6.73 0 0 0-4.79 1.984A6.73 6.73 0 0 0 4 10.774a6.73 6.73 0 0 0 1.984 4.79 6.73 6.73 0 0 0 4.79 1.985 6.73 6.73 0 0 0 4.79-1.984 6.73 6.73 0 0 0 1.985-4.79 6.73 6.73 0 0 0-1.984-4.79zm-4.79 10.272a5.488 5.488 0 0 1-5.482-5.482 5.488 5.488 0 0 1 5.481-5.481 5.488 5.488 0 0 1 5.482 5.481 5.488 5.488 0 0 1-5.482 5.482z"/><path fill="#212B36" d="M19.81 18.896l-4.248-4.248a.646.646 0 1 0-.914.914l4.249 4.249a.644.644 0 0 0 .914 0 .646.646 0 0 0 0-.915z"/></svg>