<svg width="16" height="14" viewBox="0 0 16 14" xmlns="http://www.w3.org/2000/svg"><g fill="none" fill-rule="evenodd"><path d="M-3-4h22v22H-3z"/><path d="M.531 13.719a.44.44 0 0 1-.312-.117.522.522 0 0 1-.157-.305c0-.042-.018-.3-.054-.774-.037-.474-.013-1.054.07-1.742.083-.687.258-1.43.524-2.226A6.74 6.74 0 0 1 1.89 6.313 6.89 6.89 0 0 1 3.125 5.18a7.514 7.514 0 0 1 1.523-.836 9.899 9.899 0 0 1 1.797-.54c.64-.13 1.326-.205 2.055-.226L8.516.781c0-.104.026-.195.078-.273a.52.52 0 0 1 .203-.18.537.537 0 0 1 .281-.047c.094.01.177.047.25.11l6.485 5.312a.513.513 0 0 1 .187.39.498.498 0 0 1-.188.391L9.329 11.86a.453.453 0 0 1-.25.11.537.537 0 0 1-.281-.047.501.501 0 0 1-.203-.188.493.493 0 0 1-.078-.265L8.5 8.594c-1.75 0-3.125.234-4.125.703s-1.75.99-2.25 1.562c-.5.573-.815 1.107-.945 1.602-.13.495-.196.763-.196.805a.538.538 0 0 1-.132.32.387.387 0 0 1-.305.133H.53zm8.485-6.125c.062 0 .125.013.187.039.063.026.12.06.172.101a.777.777 0 0 1 .102.164c.026.058.039.123.039.196v2.312l5.203-4.312-5.203-4.266v2.25a.48.48 0 0 1-.149.352.48.48 0 0 1-.351.148c-.709 0-1.375.05-2 .149a8.793 8.793 0 0 0-1.743.453 7.012 7.012 0 0 0-1.46.75 5.65 5.65 0 0 0-1.157 1.039 6.162 6.162 0 0 0-1.148 1.89 8.291 8.291 0 0 0-.492 1.922c.27-.375.604-.752 1-1.133.395-.38.903-.72 1.523-1.023.62-.302 1.375-.55 2.266-.742.89-.193 1.96-.29 3.21-.29z" fill="#8B9396"/></g></svg>