<svg xmlns="http://www.w3.org/2000/svg" width="22" height="22" fill="none" viewBox="0 0 22 22"><path fill="#8B9396" fill-rule="evenodd" d="M10.5 15.76c.8 0 1.535-.2 2.205-.6.66-.39 1.185-.92 1.575-1.59.39-.67.585-1.405.585-2.205S14.67 9.83 14.28 9.16a4.403 4.403 0 0 0-1.575-1.575A4.305 4.305 0 0 0 10.5 7c-.8 0-1.535.195-2.205.585-.66.39-1.185.915-1.575 1.575a4.305 4.305 0 0 0-.585 2.205c0 .8.195 1.535.585 2.205.39.67.915 1.2 1.575 1.59.67.4 1.405.6 2.205.6zm0-10.02c1.03 0 1.98.255 2.85.765.85.49 1.52 1.16 2.01 2.01.51.87.765 1.82.765 2.85s-.255 1.98-.765 2.85c-.49.85-1.16 1.52-2.01 2.01-.87.51-1.82.765-2.85.765s-1.98-.255-2.85-.765a5.386 5.386 0 0 1-2.01-2.01 5.535 5.535 0 0 1-.765-2.85c0-1.03.255-1.98.765-2.85.49-.85 1.16-1.52 2.01-2.01.87-.51 1.82-.765 2.85-.765zm.33 2.52v3.315l2.49 1.485-.51.765-2.925-1.815V8.26h.945zM7.95 5.395l-2.895 2.37-.795-.945 2.865-2.37.825.945zm8.79 1.425l-.795.945-2.895-2.46.825-.945 2.865 2.46z" clip-rule="evenodd"/></svg>