<svg width="13" height="13" viewBox="0 0 13 13" xmlns="http://www.w3.org/2000/svg"><path d="M6.5 11.76c.8 0 1.535-.2 2.205-.6.66-.39 1.185-.92 1.575-1.59.39-.67.585-1.405.585-2.205S10.67 5.83 10.28 5.16a4.403 4.403 0 0 0-1.575-1.575A4.305 4.305 0 0 0 6.5 3c-.8 0-1.535.195-2.205.585-.66.39-1.185.915-1.575 1.575a4.305 4.305 0 0 0-.585 2.205c0 .8.195 1.535.585 2.205.39.67.915 1.2 1.575 1.59.67.4 1.405.6 2.205.6zm0-10.02c1.03 0 1.98.255 2.85.765.85.49 1.52 1.16 2.01 2.01.51.87.765 1.82.765 2.85s-.255 1.98-.765 2.85c-.49.85-1.16 1.52-2.01 2.01-.87.51-1.82.765-2.85.765s-1.98-.255-2.85-.765a5.386 5.386 0 0 1-2.01-2.01 5.535 5.535 0 0 1-.765-2.85c0-1.03.255-1.98.765-2.85.49-.85 1.16-1.52 2.01-2.01.87-.51 1.82-.765 2.85-.765zm.33 2.52v3.315L9.32 9.06l-.51.765L5.885 8.01V4.26h.945zM3.95 1.395l-2.895 2.37L.26 2.82 3.125.45l.825.945zm8.79 1.425l-.795.945-2.895-2.46.825-.945 2.865 2.46z" fill="#6D777B" fill-rule="evenodd" opacity=".75"/></svg>