<svg xmlns="http://www.w3.org/2000/svg" width="24" height="24" fill="none" viewBox="0 0 24 24"><path fill="#212B36" d="M18.618 15.03a.646.646 0 0 0-.646.647v2.206c0 .454-.37.824-.824.824H6.852a.825.825 0 0 1-.824-.824v-2.206a.646.646 0 0 0-1.293 0v2.206A2.12 2.12 0 0 0 6.853 20h10.295a2.12 2.12 0 0 0 2.117-2.117v-2.206a.646.646 0 0 0-.647-.646zM8.602 8.045a.646.646 0 0 0 .914 0L12 5.56l2.485 2.485a.646.646 0 0 0 .914-.914l-2.942-2.942a.646.646 0 0 0-.914 0L8.602 7.131a.646.646 0 0 0 0 .914z"/><path fill="#212B36" d="M12 15.588c.357 0 .646-.29.646-.646V4.646a.646.646 0 0 0-1.292 0v10.296c0 .356.289.646.646.646z"/></svg>