<svg xmlns="http://www.w3.org/2000/svg" width="22" height="22" fill="none" viewBox="0 0 22 22"><path fill="#8B9396" fill-rule="evenodd" d="M19 7.186v8.642c0 .39-.137.723-.41.996-.274.274-.606.41-.996.41H5.406c-.39 0-.722-.136-.996-.41a1.356 1.356 0 0 1-.41-.996v-7.5c0-.38.137-.708.41-.981.274-.274.6-.415.982-.425h.468V5.047c0-.39.14-.723.418-.996a1.36 1.36 0 0 1 .989-.41l10.59 2.109c.528.146.85.38.967.703.117.322.176.567.176.733zM6.798 5.046v1.876h10.327c.186.01.308-.03.366-.117l.088-.132L7.237 4.578a.467.467 0 0 0-.44.469l.001-.001zm11.264 10.782V7.391c0 .156-.1.273-.3.351-.2.078-.412.117-.637.117H5.406a.45.45 0 0 0-.33.14.45.45 0 0 0-.138.33v7.5a.45.45 0 0 0 .139.329.45.45 0 0 0 .33.139h12.187a.45.45 0 0 0 .33-.14.45.45 0 0 0 .139-.329h-.001zm-11.25-4.687c.254 0 .474.092.66.278a.901.901 0 0 1 .278.66.894.894 0 0 1-.278.666.913.913 0 0 1-.66.27.905.905 0 0 1-.666-.27.907.907 0 0 1-.271-.667c0-.254.09-.474.271-.66a.895.895 0 0 1 .667-.277h-.001z" clip-rule="evenodd"/></svg>