<svg xmlns="http://www.w3.org/2000/svg" width="24" height="24" fill="none" viewBox="0 0 24 24"><path fill="#212B36" d="M18.518 5.479a5.029 5.029 0 0 0-3.58-1.483A5.029 5.029 0 0 0 11.36 5.48l-4.964 4.964a.647.647 0 0 0-.189.457v6.25c0 .358.29.648.647.648h6.25a.647.647 0 0 0 .459-.19l4.955-4.971A5.028 5.028 0 0 0 20 9.057a5.028 5.028 0 0 0-1.482-3.578zm-.915 6.243v.001l-4.768 4.781H7.5v-5.336l4.775-4.775A3.743 3.743 0 0 1 14.94 5.29c1.006 0 1.952.391 2.664 1.103a3.744 3.744 0 0 1 1.104 2.665 3.744 3.744 0 0 1-1.104 2.664z"/><path fill="#212B36" d="M15.4 8.604a.647.647 0 0 0-.915 0L4.189 18.9a.647.647 0 0 0 .915.914L15.399 9.52a.647.647 0 0 0 0-.915z"/><path fill="#212B36" d="M15.678 13.563H9.794a.647.647 0 0 0 0 1.293h5.884a.647.647 0 1 0 0-1.293z"/></svg>