<svg xmlns="http://www.w3.org/2000/svg" width="24" height="24" fill="none" viewBox="0 0 24 24"><g fill="#212B36" clip-path="url(#clip0)"><path d="M15.73 6.84A6.244 6.244 0 0011.284 5 6.244 6.244 0 006.84 6.84 6.244 6.244 0 005 11.286c0 1.679.654 3.257 1.84 4.444a6.244 6.244 0 004.445 1.841 6.244 6.244 0 004.444-1.84 6.244 6.244 0 001.841-4.445 6.244 6.244 0 00-1.84-4.444zm-4.445 9.6a5.16 5.16 0 01-5.154-5.155 5.16 5.16 0 015.154-5.154 5.16 5.16 0 015.154 5.154 5.16 5.16 0 01-5.154 5.154z"/><path d="M18.834 18.035l-3.11-3.11a.566.566 0 00-.8.8l3.11 3.11a.564.564 0 00.8 0 .566.566 0 000-.8zM13.43 10.72H9.14a.566.566 0 000 1.13h4.29a.565.565 0 100-1.13z"/></g><defs><clipPath id="clip0"><path fill="#fff" d="M0 0h14v14H0z" transform="translate(5 5)"/></clipPath></defs></svg>