<svg width="158" height="53" viewBox="0 0 158 53" xmlns="http://www.w3.org/2000/svg"><title>Logo</title><defs><linearGradient x1="69.558%" y1="-13.269%" x2="39.93%" y2="82.202%" id="a"><stop stop-color="#2CF4E1" offset="3.9%"/><stop stop-color="#2CB2E1" offset="100%"/></linearGradient><linearGradient x1="-24.618%" y1="3.457%" x2="147.594%" y2="127.729%" id="b"><stop stop-color="#2CF4E1" offset="3.9%"/><stop stop-color="#2CB2E1" offset="100%"/></linearGradient><linearGradient x1="21.51%" y1="17.32%" x2="69.351%" y2="84.775%" id="c"><stop stop-color="#2CE5E1" offset="0%"/><stop stop-color="#2CB2E1" offset="100%"/></linearGradient><linearGradient x1="49.992%" y1="99.959%" x2="49.992%" y2="0%" id="d"><stop offset="0%"/><stop stop-color="#0D0D0D" offset="100%"/></linearGradient><linearGradient x1="-1.389%" y1="50.004%" x2="101.329%" y2="50.004%" id="e"><stop stop-color="#2CF4E1" offset="3.9%"/><stop stop-color="#2CB2E1" offset="100%"/></linearGradient><linearGradient x1=".024%" y1="49.956%" x2="99.859%" y2="49.956%" id="f"><stop offset="0%"/><stop stop-color="#0D0D0D" offset="100%"/></linearGradient><linearGradient x1="-.033%" y1="50.046%" x2="99.975%" y2="50.046%" id="g"><stop offset="0%"/><stop stop-color="#0D0D0D" offset="100%"/></linearGradient><linearGradient x1=".047%" y1="49.954%" x2="100.055%" y2="49.954%" id="h"><stop offset="0%"/><stop stop-color="#0D0D0D" offset="100%"/></linearGradient><linearGradient x1="-.048%" y1="50.044%" x2="99.974%" y2="50.044%" id="i"><stop offset="0%"/><stop stop-color="#0D0D0D" offset="100%"/></linearGradient><linearGradient x1="-.012%" y1="49.983%" x2="100.014%" y2="49.983%" id="j"><stop offset="0%"/><stop stop-color="#0D0D0D" offset="100%"/></linearGradient><linearGradient x1=".133%" y1="49.978%" x2="100.116%" y2="49.978%" id="k"><stop offset="0%"/><stop stop-color="#0D0D0D" offset="100%"/></linearGradient></defs><g fill="none" fill-rule="evenodd"><g fill-rule="nonzero" transform="translate(1 1)"><ellipse fill="url(#a)" cx="28.8" cy="19.997" rx="15.549" ry="15.896"/><path d="M39.72 15.23a8.93 8.93 0 0 1 1.697 5.258c0 2.296-.926 4.416-2.503 6.134l.96 3.663h2.915l3.068-3.558.823-5.205.171-3.102-3.034-3.506-4.097.316z" fill="url(#b)"/><path d="M5.949 30.705l.531 2.156s6.274 13.162 20.4 18.051c0 0 13.234-5.608 18.943-15.124L37.56 28.76s-3.771 3.067-9.377 3.067c-5.606 0-13.217-3.418-13.217-10.463 0-7.045 7.885-9.622 7.885-9.622l-3.36-.841h-8.588L5.45 24.326l.498 6.38z" fill="url(#c)"/><path d="M53.417 16.562c-.24-.246-7.2-7.782-26.28-14.494l-.12-.053C8.537 8.5.583 16.562.583 16.562c.72 4.294 2.537 9.078 4.183 12.794.137.315 2.331 4.276 3.96 6.432-.96-2.156-2.006-4.031-2.006-7.256 0-9.096 6.891-16.492 15.514-16.807.206 0 .429 0 .635.017L20.81 9.64s8.28-1.42 18.909 5.153c0 0 .154.333 0 1.314 0 0 5.006 2.208 5.434 6.502.429 4.294-2.228 6.748-4.371 7.098 0 0 1.114-1.77-.6-2.716a2.235 2.235 0 0 0-1.217-.28c-3.275 0-3.652 3.82-3.652 3.82-.034.193-.034.385-.034.578 0 0-.549 5.591 9.189 5.486 0 0 4.937-5.714 6.24-10.849.48-1.892.822-3.312 1.045-4.364.549-1.49 1.08-3.032 1.595-4.626l.068-.193z" fill="url(#d)"/><path d="M35.486 16.492c.137-.07.583-.298 1.097-.841 1.028.14 2.04.473 2.04.473-1.869-1.157-4.423-1.84-7.252-1.823 0 0 1.08 1.577 4.08 2.226l.035-.035z" fill="#282828"/><path d="M26.931 2.857c1.818.578 15.018 5.065 25.578 13.985l1.182-.35-.085-.07C43.286 7.484 30.24 2.839 27.53 1.945l-.257-.087-.343-.105-.6.192C23.623 2.84 10.577 7.484.257 16.422l-.12.105 1.149.385C11.846 7.94 25.114 3.435 26.93 2.857z" fill="#282828"/><path d="M54.596 14.618l-.125.723c-.066.562-.511 2.575-1.06 4.501a59.645 59.645 0 0 1-3.943 10.218c-2.277 4.566-5.043 8.551-8.215 11.83-3.916 4.038-8.444 7.02-13.493 8.877l-.282.102-.535.213-.531-.192-.296-.107c-5.06-1.861-9.602-4.85-13.49-8.878-3.187-3.312-5.949-7.285-8.214-11.829A59.737 59.737 0 0 1 .475 19.853a53.263 53.263 0 0 1-.815-3.234 27.329 27.329 0 0 1-.24-1.202l-.13-.742.301-.26.223-.193C4.449 10.207 9.933 6.763 15.853 3.869 19.797 1.942 23.403.51 26.126-.388l.8-.258.545.167.271.092C30.46.51 34.066 1.942 38.01 3.87c5.911 2.89 11.387 6.327 16.017 10.334l.57.415zm-53.845.46c-.001-.005-.001-.005 0 0zm.248 1.237c.204.943.466 1.997.793 3.147a58.327 58.327 0 0 0 3.842 9.978c2.203 4.419 4.883 8.274 7.968 11.481 3.745 3.88 8.113 6.753 12.975 8.542l.343.123.38-.14c4.85-1.784 9.205-4.651 12.978-8.543 3.07-3.172 5.754-7.039 7.968-11.48a58.236 58.236 0 0 0 3.848-9.973c.33-1.155.593-2.216.794-3.149a30.357 30.357 0 0 0 .211-1.064c-4.523-3.906-9.886-7.27-15.68-10.103-3.886-1.898-7.435-3.308-10.104-4.189l-.258-.087.217-.665-.197.671-.343-.105.197-.671.206.668-.595.192c-2.663.878-6.213 2.288-10.098 4.186-5.788 2.83-11.146 6.19-15.667 10.091l-.3.26-.443-.536.676-.121.051.298-.675.121.664-.17c.073.386.166.86.249 1.238zm38.525 23.852c2.993-3.094 5.611-6.87 7.78-11.217a57.294 57.294 0 0 0 3.494-8.811 49.763 49.763 0 0 0 1.163-4.497c-4.556-3.846-9.933-7.14-15.713-9.9a90.122 90.122 0 0 0-6.252-2.702 67.552 67.552 0 0 0-3.065-1.112c-.811.268-1.84.635-3.072 1.112a89.746 89.746 0 0 0-6.25 2.702C11.834 8.5 6.459 11.796 1.9 15.642a49.086 49.086 0 0 0 1.158 4.515 56.606 56.606 0 0 0 3.5 8.828c2.161 4.331 4.776 8.094 7.78 11.199 3.65 3.766 7.871 6.54 12.592 8.284 4.707-1.739 8.931-4.524 12.593-8.301zm9.001-10.58c-2.23 4.472-4.93 8.366-8.027 11.566-3.865 3.988-8.343 6.917-13.338 8.72l-.229.083-.228-.083c-5.01-1.808-9.485-4.726-13.34-8.703-3.105-3.21-5.802-7.092-8.025-11.548a58.015 58.015 0 0 1-3.589-9.05C1.135 18.55.726 16.837.475 15.503L.4 15.098l.31-.265C5.432 10.785 11.02 7.34 17.028 4.47a91.096 91.096 0 0 1 6.345-2.742 65.528 65.528 0 0 1 3.35-1.205l.208-.068.209.068c.895.294 1.985.68 3.341 1.205a91.471 91.471 0 0 1 6.346 2.742c6.013 2.871 11.603 6.315 16.327 10.362l.31.265-.078.406c-.25 1.315-.664 3.033-1.28 5.052a58.705 58.705 0 0 1-3.582 9.03z" fill="url(#e)"/></g><path d="M48.525 6.888v-.035c0-3.65 2.79-6.732 6.733-6.732 2.273 0 3.668.637 5.011 1.773l-1.446 1.722c-1-.86-1.998-1.395-3.65-1.395-2.412 0-4.237 2.101-4.237 4.598v.034c0 2.687 1.774 4.65 4.443 4.65 1.222 0 2.342-.396 3.15-.982V7.56l2.222-1.48v5.475c-1.291 1.103-3.134 2.032-5.441 2.032-4.098 0-6.785-2.91-6.785-6.698" fill="url(#f)" transform="translate(63 19)"/><path fill="url(#g)" d="M5.82.551L.086 13.672h2.342l1.343-3.134.844-2.031 2.238-5.218L9.11 8.507l.827 2.031 1.326 3.134h2.428L7.956.551z" transform="translate(63 19)"/><path fill="url(#h)" d="M37.952.293l-5.751 13.121h2.359l1.343-3.151.827-2.032 2.238-5.2 2.256 5.2.844 2.032 1.326 3.151h2.41L40.07.293z" transform="translate(63 19)"/><path d="M71.84.155c-4.011 0-6.835 3.065-6.835 6.733v.034c0 3.668 2.79 6.699 6.801 6.699 4.013 0 6.837-3.065 6.837-6.733v-.035c0-3.667-2.807-6.698-6.802-6.698zm4.392 6.785c0 2.53-1.808 4.597-4.391 4.597s-4.443-2.1-4.443-4.632v-.034c0-2.532 1.808-4.598 4.391-4.598s4.443 2.1 4.443 4.632v.035z" fill="url(#i)" transform="translate(63 19)"/><path fill="url(#j)" d="M92.384.379v9.006L85.393.379h-2.118v13.035h2.255V4.133l7.198 9.281h1.912V.38z" transform="translate(63 19)"/><path d="M25.537 8.472c1.825-.516 3.117-1.808 3.117-3.943v-.035c0-1.136-.396-2.1-1.085-2.806C26.725.86 25.45.378 23.798.378h-5.82v13.036h2.29V2.462h3.34c.293 0 .551.035.792.07 1.206.206 1.912.93 1.912 2.083v.034c0 1.326-1.05 2.17-2.687 2.17h-1.274l-.895 2.032H23.143l3.203 4.546h2.704l-3.513-4.925z" fill="url(#k)" transform="translate(63 19)"/></g></svg>