<svg width="148" height="36" viewBox="0 0 148 36" xmlns="http://www.w3.org/2000/svg"><title>Artboard</title><defs><linearGradient x1=".024%" y1="49.956%" x2="99.859%" y2="49.956%" id="a"><stop offset="0%"/><stop stop-color="#0D0D0D" offset="100%"/></linearGradient><linearGradient x1="-.033%" y1="50.046%" x2="99.975%" y2="50.046%" id="b"><stop offset="0%"/><stop stop-color="#0D0D0D" offset="100%"/></linearGradient><linearGradient x1=".047%" y1="49.954%" x2="100.055%" y2="49.954%" id="c"><stop offset="0%"/><stop stop-color="#0D0D0D" offset="100%"/></linearGradient><linearGradient x1="-.048%" y1="50.044%" x2="99.974%" y2="50.044%" id="d"><stop offset="0%"/><stop stop-color="#0D0D0D" offset="100%"/></linearGradient><linearGradient x1="-.012%" y1="49.983%" x2="100.014%" y2="49.983%" id="e"><stop offset="0%"/><stop stop-color="#0D0D0D" offset="100%"/></linearGradient><linearGradient x1=".133%" y1="49.978%" x2="100.116%" y2="49.978%" id="f"><stop offset="0%"/><stop stop-color="#0D0D0D" offset="100%"/></linearGradient><linearGradient x1="69.558%" y1="-13.269%" x2="39.93%" y2="82.202%" id="g"><stop stop-color="#2CF4E1" offset="3.9%"/><stop stop-color="#2CB2E1" offset="100%"/></linearGradient><linearGradient x1="-24.618%" y1="3.457%" x2="147.594%" y2="127.729%" id="h"><stop stop-color="#2CF4E1" offset="3.9%"/><stop stop-color="#2CB2E1" offset="100%"/></linearGradient><linearGradient x1="21.51%" y1="17.32%" x2="69.351%" y2="84.775%" id="i"><stop stop-color="#2CE5E1" offset="0%"/><stop stop-color="#2CB2E1" offset="100%"/></linearGradient><linearGradient x1="49.992%" y1="99.959%" x2="49.992%" y2="0%" id="j"><stop offset="0%"/><stop stop-color="#0D0D0D" offset="100%"/></linearGradient><linearGradient x1="-1.389%" y1="50.004%" x2="101.329%" y2="50.004%" id="k"><stop stop-color="#2CF4E1" offset="3.9%"/><stop stop-color="#2CB2E1" offset="100%"/></linearGradient></defs><g fill="none" fill-rule="evenodd"><path d="M48.525 6.888v-.035c0-3.65 2.79-6.732 6.733-6.732 2.273 0 3.668.637 5.011 1.773l-1.446 1.722c-1-.86-1.998-1.395-3.65-1.395-2.412 0-4.237 2.101-4.237 4.598v.034c0 2.687 1.774 4.65 4.443 4.65 1.222 0 2.342-.396 3.15-.982V7.56l2.222-1.48v5.475c-1.291 1.103-3.134 2.032-5.441 2.032-4.098 0-6.785-2.91-6.785-6.698" fill="url(#a)" transform="translate(53 11)"/><path fill="url(#b)" d="M5.82.551L.086 13.672h2.342l1.343-3.134.844-2.031 2.238-5.218L9.11 8.507l.827 2.031 1.326 3.134h2.428L7.956.551z" transform="translate(53 11)"/><path fill="url(#c)" d="M37.952.293l-5.751 13.121h2.359l1.343-3.151.827-2.032 2.238-5.2 2.256 5.2.844 2.032 1.326 3.151h2.41L40.07.293z" transform="translate(53 11)"/><path d="M71.84.155c-4.011 0-6.835 3.065-6.835 6.733v.034c0 3.668 2.79 6.699 6.801 6.699 4.013 0 6.837-3.065 6.837-6.733v-.035c0-3.667-2.807-6.698-6.802-6.698zm4.392 6.785c0 2.53-1.808 4.597-4.391 4.597s-4.443-2.1-4.443-4.632v-.034c0-2.532 1.808-4.598 4.391-4.598s4.443 2.1 4.443 4.632v.035z" fill="url(#d)" transform="translate(53 11)"/><path fill="url(#e)" d="M92.384.379v9.006L85.393.379h-2.118v13.035h2.255V4.133l7.198 9.281h1.912V.38z" transform="translate(53 11)"/><path d="M25.537 8.472c1.825-.516 3.117-1.808 3.117-3.943v-.035c0-1.136-.396-2.1-1.085-2.806C26.725.86 25.45.378 23.798.378h-5.82v13.036h2.29V2.462h3.34c.293 0 .551.035.792.07 1.206.206 1.912.93 1.912 2.083v.034c0 1.326-1.05 2.17-2.687 2.17h-1.274l-.895 2.032H23.143l3.203 4.546h2.704l-3.513-4.925z" fill="url(#f)" transform="translate(53 11)"/><g><g fill-rule="nonzero" transform="translate(1)"><ellipse fill="url(#g)" cx="20.267" cy="14.115" rx="10.942" ry="11.221"/><path d="M27.951 10.75a6.316 6.316 0 0 1 1.194 3.712c0 1.62-.651 3.117-1.76 4.33l.675 2.585h2.05l2.16-2.511.579-3.674.12-2.19-2.135-2.474-2.883.223z" fill="url(#h)"/><path d="M4.186 21.674l.374 1.522s4.415 9.29 14.356 12.742c0 0 9.313-3.959 13.33-10.676L26.43 20.3s-2.654 2.165-6.599 2.165c-3.944 0-9.3-2.412-9.3-7.386 0-4.973 5.549-6.791 5.549-6.791l-2.365-.594H7.672L3.836 17.17l.35 4.503z" fill="url(#i)"/><path d="M37.59 11.69c-.169-.172-5.067-5.492-18.493-10.23l-.085-.037C6.008 6 .41 11.69.41 11.69c.507 3.03 1.786 6.408 2.944 9.03.096.223 1.64 3.02 2.786 4.54-.675-1.52-1.411-2.845-1.411-5.12 0-6.421 4.85-11.642 10.917-11.865.145 0 .302 0 .447.013l-1.448-1.485s5.827-1.002 13.306 3.637c0 0 .109.235 0 .928 0 0 3.523 1.559 3.824 4.59.302 3.03-1.568 4.763-3.076 5.01 0 0 .784-1.25-.422-1.917a1.569 1.569 0 0 0-.857-.198c-2.304 0-2.57 2.697-2.57 2.697-.023.136-.023.272-.023.408 0 0-.386 3.946 6.466 3.872 0 0 3.474-4.033 4.39-7.658.339-1.336.58-2.338.737-3.08a84.69 84.69 0 0 0 1.122-3.266l.048-.136z" fill="url(#j)"/><path d="M24.971 11.641c.097-.05.41-.21.772-.594.724.1 1.436.334 1.436.334-1.315-.816-3.112-1.299-5.103-1.286 0 0 .76 1.113 2.871 1.571l.024-.025z" fill="#282828"/><path d="M18.952 2.016c1.278.409 10.567 3.576 17.998 9.873l.833-.248-.06-.05C30.46 5.283 21.28 2.005 19.374 1.374l-.181-.062-.241-.074-.422.136C16.623 2.004 7.443 5.283.18 11.592l-.084.074.808.272c7.43-6.334 16.768-9.513 18.047-9.922z" fill="#282828"/><path d="M38.42 10.319l-.088.51c-.047.397-.36 1.817-.746 3.177a42.182 42.182 0 0 1-2.775 7.213c-1.602 3.223-3.55 6.036-5.781 8.35-2.756 2.85-5.942 4.955-9.495 6.267l-.198.071-.377.15-.374-.135-.208-.075c-3.56-1.314-6.757-3.423-9.493-6.267-2.243-2.338-4.186-5.142-5.78-8.35A42.247 42.247 0 0 1-.24 11.731c-.09-.41-.186-.92-.169-.848l-.091-.524.211-.184.157-.136c3.262-2.834 7.12-5.265 11.287-7.308 2.775-1.36 5.313-2.37 7.229-3.005l.563-.182.384.118.19.065c1.913.633 4.45 1.644 7.226 3.004 4.16 2.04 8.013 4.466 11.271 7.295l.4.293zm-37.892.324c0-.003 0-.003 0 0zm.175.874a41.25 41.25 0 0 0 3.262 9.265c1.55 3.118 3.436 5.84 5.607 8.103 2.635 2.74 5.709 4.767 9.13 6.03l.242.087.267-.099c3.414-1.26 6.478-3.283 9.133-6.03 2.16-2.24 4.049-4.969 5.607-8.104a41.185 41.185 0 0 0 2.708-7.04c.232-.815.417-1.564.559-2.222a21.487 21.487 0 0 0 .148-.752C34.183 8 30.409 5.624 26.332 3.625 23.598 2.283 21.1 1.288 19.222.666L19.04.606l.153-.47-.139.474-.24-.074.138-.474.144.472-.418.135c-1.874.62-4.372 1.615-7.106 2.955C7.498 5.621 3.728 7.994.547 10.747l-.211.183-.312-.377.475-.086.037.21-.476.086.468-.12c.051.272.117.606.175.874zm27.11 16.836c2.106-2.184 3.949-4.85 5.475-7.918a40.517 40.517 0 0 0 2.458-6.22c.379-1.245.646-2.32.82-3.174-3.207-2.714-6.99-5.04-11.058-6.988a63.316 63.316 0 0 0-4.4-1.907 47.441 47.441 0 0 0-2.157-.785c-.57.19-1.294.448-2.161.785a63.052 63.052 0 0 0-4.399 1.907C8.327 6 4.545 8.326 1.338 11.042c.173.863.437 1.938.815 3.187a40.03 40.03 0 0 0 2.463 6.23c1.52 3.058 3.36 5.714 5.474 7.906 2.569 2.658 5.54 4.617 8.862 5.848 3.312-1.228 6.284-3.194 8.861-5.86zm6.334-7.469c-1.57 3.157-3.47 5.906-5.648 8.165-2.72 2.815-5.871 4.883-9.387 6.156l-.16.058-.16-.058c-3.526-1.277-6.675-3.337-9.388-6.144-2.185-2.266-4.083-5.006-5.648-8.151a41.026 41.026 0 0 1-2.525-6.388 34.586 34.586 0 0 1-.897-3.58l-.053-.285.217-.187c3.325-2.857 7.257-5.288 11.485-7.314a64 64 0 0 1 4.465-1.936c.96-.373 1.75-.653 2.358-.85l.146-.048.147.048c.63.207 1.397.48 2.351.85 1.42.552 2.92 1.196 4.466 1.936 4.232 2.027 8.165 4.458 11.49 7.314l.217.188-.054.286a34.97 34.97 0 0 1-.901 3.566 41.515 41.515 0 0 1-2.52 6.374z" fill="url(#k)"/></g></g></g></svg>