<svg width="16" height="30" viewBox="0 0 16 30" xmlns="http://www.w3.org/2000/svg" xmlns:xlink="http://www.w3.org/1999/xlink"><use xlink:href="#a" fill="#717171"/><defs><path id="a" d="M4.997 10.667a.117.117 0 0 0-.025-.042L.695 8.482C.578 8.424.46 8.357.326 8.357.1 8.357 0 8.549 0 8.758v9.543c0 .25.184.552.419.67l3.892 1.95a.612.612 0 0 0 .276.067c.285 0 .41-.243.41-.503v-9.818zm.536.845v5.023l4.47 2.226-4.47-7.249zm9.467.15l-4.52 7.342 3.691 1.841a.793.793 0 0 0 .394.11c.276 0 .435-.193.435-.47v-8.822zm-.025-1.004a.056.056 0 0 0-.034-.05l-4.528-2.26a.488.488 0 0 0-.218-.05.505.505 0 0 0-.435.234l-2.712 4.412 3.264 5.307c.335-.536 4.663-7.559 4.663-7.593z"/></defs></svg>