<svg width="18" height="15" viewBox="0 0 18 15" xmlns="http://www.w3.org/2000/svg"><path d="M18 7.488c0-.885-.27-1.734-.804-2.523-.479-.708-1.15-1.336-1.994-1.864-1.63-1.02-3.773-1.581-6.033-1.581-.755 0-1.5.062-2.221.186A7.358 7.358 0 0 0 5.42.634C2.458-.773 0 .6 0 .6s2.285 1.838 1.913 3.45C.891 5.044.337 6.24.337 7.488v.024c0 1.247.554 2.444 1.576 3.437C2.285 12.561 0 14.4 0 14.4s2.458 1.374 5.421-.033a7.355 7.355 0 0 0 1.527-1.072c.722.124 1.466.186 2.22.186 2.26 0 4.403-.561 6.034-1.581.844-.528 1.515-1.156 1.994-1.864.534-.789.804-1.638.804-2.523v-.025zm-8.828 4.864c-.951 0-1.862-.108-2.704-.304-.855 1.007-2.737 2.409-4.565 1.956.594-.626 1.475-1.683 1.287-3.424-1.096-.835-1.754-1.903-1.754-3.068 0-2.673 3.464-4.84 7.736-4.84s7.736 2.167 7.736 4.84-3.464 4.84-7.736 4.84zm1.028-4.84c0 .556-.46 1.007-1.028 1.007a1.017 1.017 0 0 1-1.027-1.007c0-.556.46-1.006 1.027-1.006.568 0 1.028.45 1.028 1.006zm2.545-1.006c-.567 0-1.027.45-1.027 1.006s.46 1.007 1.027 1.007c.568 0 1.028-.451 1.028-1.007 0-.556-.46-1.006-1.028-1.006zm-7.146 0c-.567 0-1.027.45-1.027 1.006s.46 1.007 1.027 1.007c.568 0 1.028-.451 1.028-1.007 0-.556-.46-1.006-1.028-1.006z" fill="#717171"/></svg>