<svg width="15" height="30" viewBox="0 0 15 30" xmlns="http://www.w3.org/2000/svg" xmlns:xlink="http://www.w3.org/1999/xlink"><use xlink:href="#a" fill="#717171"/><defs><path id="a" d="M13.56 10.558a5.42 5.42 0 0 1-1.557.419 2.7 2.7 0 0 0 1.189-1.49 5.323 5.323 0 0 1-1.716.652 2.697 2.697 0 0 0-1.975-.853 2.702 2.702 0 0 0-2.704 2.703c0 .21.025.419.067.62a7.685 7.685 0 0 1-5.575-2.83 2.702 2.702 0 0 0 .837 3.616 2.724 2.724 0 0 1-1.222-.342v.033c0 1.314.93 2.402 2.168 2.653a2.858 2.858 0 0 1-.712.092c-.175 0-.343-.016-.51-.041a2.708 2.708 0 0 0 2.528 1.875A5.414 5.414 0 0 1 1.02 18.82a5.62 5.62 0 0 1-.653-.034A7.64 7.64 0 0 0 4.52 20c4.972 0 7.693-4.118 7.693-7.693 0-.117 0-.234-.009-.351a5.81 5.81 0 0 0 1.356-1.398z"/></defs></svg>