<svg width="15" height="4" viewBox="0 0 15 4" xmlns="http://www.w3.org/2000/svg"><path d="M7.5 3.213a1.42 1.42 0 0 1-.974-.37c-.278-.248-.418-.588-.418-1.021 0-.384.135-.71.404-.979S7.11.439 7.5.439s.722.135.997.404c.276.27.413.595.413.979 0 .439-.142.78-.427 1.025a1.465 1.465 0 0 1-.983.366zm-5.327 0c-.371 0-.694-.122-.97-.366C.928 2.603.791 2.26.791 1.822c0-.39.133-.718.398-.984.266-.266.594-.399.984-.399s.722.135.997.404c.275.27.413.595.413.979 0 .439-.142.78-.427 1.025a1.465 1.465 0 0 1-.983.366zm10.654 0c-.365 0-.688-.123-.97-.37-.28-.248-.421-.588-.421-1.021 0-.384.134-.71.403-.979.27-.269.598-.404.988-.404s.722.135.997.404c.276.27.413.595.413.979 0 .433-.14.773-.422 1.02a1.45 1.45 0 0 1-.988.371z" fill="#21AAE7" fill-rule="evenodd"/></svg>