<svg id="Capa_1" xmlns="http://www.w3.org/2000/svg" xmlns:xlink="http://www.w3.org/1999/xlink" viewBox="0 0 571.6 98.3"><style>.st0{clip-path:url(#SVGID_3_)}.st1{clip-path:url(#SVGID_6_);fill:url(#SVGID_7_)}.st2{clip-path:url(#SVGID_10_)}.st3{clip-path:url(#SVGID_13_);fill:url(#SVGID_14_)}.st4{clip-path:url(#SVGID_17_)}.st5{clip-path:url(#SVGID_20_);fill:url(#SVGID_21_)}.st6{clip-path:url(#SVGID_24_)}.st7{clip-path:url(#SVGID_27_);fill:url(#SVGID_28_)}.st8{clip-path:url(#SVGID_31_)}.st9{clip-path:url(#SVGID_34_);fill:url(#SVGID_35_)}.st10{clip-path:url(#SVGID_38_)}.st11{clip-path:url(#SVGID_41_);fill:url(#SVGID_42_)}</style><defs><path id="SVGID_1_" d="M291.8 52v-.2c0-21.2 16.2-39.1 39.1-39.1 13.2 0 21.3 3.7 29.1 10.3l-8.4 10c-5.8-5-11.6-8.1-21.2-8.1-14 0-24.6 12.2-24.6 26.7v.2c0 15.6 10.3 27 25.8 27 7.1 0 13.6-2.3 18.3-5.7V55.9l12.9-8.6v31.8c-7.5 6.4-18.2 11.8-31.6 11.8-23.8 0-39.4-16.9-39.4-38.9"/></defs><linearGradient id="SVGID_2_" gradientUnits="userSpaceOnUse" x1="291.817" y1="51.766" x2="362.7" y2="51.766"><stop offset="0"/><stop offset="1" stop-color="#0d0d0d"/></linearGradient><use xlink:href="#SVGID_1_" overflow="visible" fill-rule="evenodd" clip-rule="evenodd" fill="url(#SVGID_2_)"/><clipPath id="SVGID_3_"><use xlink:href="#SVGID_1_" overflow="visible"/></clipPath><g class="st0"><defs><path id="SVGID_4_" d="M-655.9-523.9H873V556.5H-655.9z"/></defs><linearGradient id="SVGID_5_" gradientUnits="userSpaceOnUse" x1="-655.929" y1="16.301" x2="872.985" y2="16.301"><stop offset="0"/><stop offset="1" stop-color="#0d0d0d"/></linearGradient><use xlink:href="#SVGID_4_" overflow="visible" fill="url(#SVGID_5_)"/><clipPath id="SVGID_6_"><use xlink:href="#SVGID_4_" overflow="visible"/></clipPath><linearGradient id="SVGID_7_" gradientUnits="userSpaceOnUse" x1="282.738" y1="51.766" x2="371.779" y2="51.766"><stop offset="0"/><stop offset="1" stop-color="#0d0d0d"/></linearGradient><path class="st1" d="M282.7 3.6h89V100h-89z"/></g><defs><path id="SVGID_8_" d="M43.8 15.2L10.5 91.4h13.6l7.8-18.2 4.9-11.8 13-30.3 13.1 30.3 4.8 11.8 7.7 18.2h14.1L56.2 15.2z"/></defs><linearGradient id="SVGID_9_" gradientUnits="userSpaceOnUse" x1="10.474" y1="53.335" x2="89.48" y2="53.335"><stop offset="0"/><stop offset="1" stop-color="#0d0d0d"/></linearGradient><use xlink:href="#SVGID_8_" overflow="visible" fill-rule="evenodd" clip-rule="evenodd" fill="url(#SVGID_9_)"/><clipPath id="SVGID_10_"><use xlink:href="#SVGID_8_" overflow="visible"/></clipPath><g class="st2"><defs><path id="SVGID_11_" d="M-655.9-523.9H873V556.5H-655.9z"/></defs><linearGradient id="SVGID_12_" gradientUnits="userSpaceOnUse" x1="-655.929" y1="16.301" x2="872.985" y2="16.301"><stop offset="0"/><stop offset="1" stop-color="#0d0d0d"/></linearGradient><use xlink:href="#SVGID_11_" overflow="visible" fill="url(#SVGID_12_)"/><clipPath id="SVGID_13_"><use xlink:href="#SVGID_11_" overflow="visible"/></clipPath><linearGradient id="SVGID_14_" gradientUnits="userSpaceOnUse" x1="1.395" y1="53.335" x2="98.559" y2="53.335"><stop offset="0"/><stop offset="1" stop-color="#0d0d0d"/></linearGradient><path class="st3" d="M1.4 6.2h97.2v94.4H1.4z"/></g><g><defs><path id="SVGID_15_" d="M230.4 13.7L197 89.9h13.7l7.8-18.3 4.8-11.8 13-30.2 13.1 30.2 4.9 11.8 7.7 18.3h14l-33.3-76.2z"/></defs><linearGradient id="SVGID_16_" gradientUnits="userSpaceOnUse" x1="197.037" y1="51.765" x2="276.043" y2="51.765"><stop offset="0"/><stop offset="1" stop-color="#0d0d0d"/></linearGradient><use xlink:href="#SVGID_15_" overflow="visible" fill-rule="evenodd" clip-rule="evenodd" fill="url(#SVGID_16_)"/><clipPath id="SVGID_17_"><use xlink:href="#SVGID_15_" overflow="visible"/></clipPath><g class="st4"><defs><path id="SVGID_18_" d="M-655.9-523.9H873V556.5H-655.9z"/></defs><linearGradient id="SVGID_19_" gradientUnits="userSpaceOnUse" x1="-655.929" y1="16.301" x2="872.985" y2="16.301"><stop offset="0"/><stop offset="1" stop-color="#0d0d0d"/></linearGradient><use xlink:href="#SVGID_18_" overflow="visible" fill="url(#SVGID_19_)"/><clipPath id="SVGID_20_"><use xlink:href="#SVGID_18_" overflow="visible"/></clipPath><linearGradient id="SVGID_21_" gradientUnits="userSpaceOnUse" x1="187.958" y1="51.765" x2="285.122" y2="51.765"><stop offset="0"/><stop offset="1" stop-color="#0d0d0d"/></linearGradient><path class="st5" d="M188 4.6h97.2V99H188z"/></g></g><g><defs><path id="SVGID_22_" d="M427.2 12.9c-23.3 0-39.7 17.8-39.7 39.1v.2c0 21.3 16.2 38.9 39.5 38.9s39.7-17.8 39.7-39.1v-.2c0-21.3-16.3-38.9-39.5-38.9zm25.5 39.4c0 14.7-10.5 26.7-25.5 26.7s-25.8-12.2-25.8-26.9v-.2c0-14.7 10.5-26.7 25.5-26.7s25.8 12.2 25.8 26.9v.2z"/></defs><linearGradient id="SVGID_23_" gradientUnits="userSpaceOnUse" x1="387.462" y1="52.035" x2="466.679" y2="52.035"><stop offset="0"/><stop offset="1" stop-color="#0d0d0d"/></linearGradient><use xlink:href="#SVGID_22_" overflow="visible" fill-rule="evenodd" clip-rule="evenodd" fill="url(#SVGID_23_)"/><clipPath id="SVGID_24_"><use xlink:href="#SVGID_22_" overflow="visible"/></clipPath><g class="st6"><defs><path id="SVGID_25_" d="M-655.9-523.9H873V556.5H-655.9z"/></defs><linearGradient id="SVGID_26_" gradientUnits="userSpaceOnUse" x1="-655.929" y1="16.301" x2="872.985" y2="16.301"><stop offset="0"/><stop offset="1" stop-color="#0d0d0d"/></linearGradient><use xlink:href="#SVGID_25_" overflow="visible" fill="url(#SVGID_26_)"/><clipPath id="SVGID_27_"><use xlink:href="#SVGID_25_" overflow="visible"/></clipPath><linearGradient id="SVGID_28_" gradientUnits="userSpaceOnUse" x1="378.383" y1="52.035" x2="475.758" y2="52.035"><stop offset="0"/><stop offset="1" stop-color="#0d0d0d"/></linearGradient><path class="st7" d="M378.4 3.8h97.4v96.4h-97.4z"/></g></g><g><defs><path id="SVGID_29_" d="M546.5 14.2v52.3l-40.6-52.3h-12.3v75.7h13.1V36l41.8 53.9h11.1V14.2z"/></defs><linearGradient id="SVGID_30_" gradientUnits="userSpaceOnUse" x1="493.592" y1="52.037" x2="559.609" y2="52.037"><stop offset="0"/><stop offset="1" stop-color="#0d0d0d"/></linearGradient><use xlink:href="#SVGID_29_" overflow="visible" fill-rule="evenodd" clip-rule="evenodd" fill="url(#SVGID_30_)"/><clipPath id="SVGID_31_"><use xlink:href="#SVGID_29_" overflow="visible"/></clipPath><g class="st8"><defs><path id="SVGID_32_" d="M-655.9-523.9H873V556.5H-655.9z"/></defs><linearGradient id="SVGID_33_" gradientUnits="userSpaceOnUse" x1="-655.929" y1="16.301" x2="872.985" y2="16.301"><stop offset="0"/><stop offset="1" stop-color="#0d0d0d"/></linearGradient><use xlink:href="#SVGID_32_" overflow="visible" fill="url(#SVGID_33_)"/><clipPath id="SVGID_34_"><use xlink:href="#SVGID_32_" overflow="visible"/></clipPath><linearGradient id="SVGID_35_" gradientUnits="userSpaceOnUse" x1="484.513" y1="52.037" x2="568.688" y2="52.037"><stop offset="0"/><stop offset="1" stop-color="#0d0d0d"/></linearGradient><path class="st9" d="M484.5 5.1h84.2v93.8h-84.2z"/></g></g><g><defs><path id="SVGID_36_" d="M158.3 61.2c10.6-3 18.1-10.5 18.1-22.9v-.2c0-6.6-2.3-12.2-6.3-16.3-4.9-4.8-12.3-7.6-21.9-7.6h-33.8v75.7h13.3V26.3h19.4c1.7 0 3.2.2 4.6.4 7 1.2 11.1 5.4 11.1 12.1v.2c0 7.7-6.1 12.6-15.6 12.6h-7.4l-5.2 11.8h9.8L163 89.8h15.7l-20.4-28.6z"/></defs><linearGradient id="SVGID_37_" gradientUnits="userSpaceOnUse" x1="114.486" y1="52.033" x2="178.775" y2="52.033"><stop offset="0"/><stop offset="1" stop-color="#0d0d0d"/></linearGradient><use xlink:href="#SVGID_36_" overflow="visible" fill-rule="evenodd" clip-rule="evenodd" fill="url(#SVGID_37_)"/><clipPath id="SVGID_38_"><use xlink:href="#SVGID_36_" overflow="visible"/></clipPath><g class="st10"><defs><path id="SVGID_39_" d="M-655.9-523.9H873V556.5H-655.9z"/></defs><linearGradient id="SVGID_40_" gradientUnits="userSpaceOnUse" x1="-655.929" y1="16.301" x2="872.985" y2="16.301"><stop offset="0"/><stop offset="1" stop-color="#0d0d0d"/></linearGradient><use xlink:href="#SVGID_39_" overflow="visible" fill="url(#SVGID_40_)"/><clipPath id="SVGID_41_"><use xlink:href="#SVGID_39_" overflow="visible"/></clipPath><linearGradient id="SVGID_42_" gradientUnits="userSpaceOnUse" x1="105.406" y1="52.033" x2="187.854" y2="52.033"><stop offset="0"/><stop offset="1" stop-color="#0d0d0d"/></linearGradient><path class="st11" d="M105.4 5.1h82.4v93.8h-82.4z"/></g></g></svg>