<svg width="14" height="30" viewBox="0 0 14 30" xmlns="http://www.w3.org/2000/svg" xmlns:xlink="http://www.w3.org/1999/xlink"><use xlink:href="#a" fill="#717171"/><defs><path id="a" d="M11.865 9.219c.332 0 .625.127.88.38.253.255.38.547.38.88v7.793c0 .332-.127.625-.38.878a1.211 1.211 0 0 1-.88.381H1.26c-.332 0-.625-.127-.88-.38a1.207 1.207 0 0 1-.38-.88v-7.793c0-.332.127-.624.38-.878.255-.254.548-.381.88-.381h10.605zm-.146 2.666v-1.26l-5.156 3.428-5.157-3.428v1.26l5.157 3.428 5.156-3.428z"/></defs></svg>