<svg width="15" height="30" viewBox="0 0 15 30" xmlns="http://www.w3.org/2000/svg" xmlns:xlink="http://www.w3.org/1999/xlink"><use xlink:href="#a" fill="#717171"/><defs><path id="a" d="M12.715 13.638c-.126 0-.26.026-.385.067l-1.373.47-.879-2.646 1.314-.452c.469-.159.87-.594.87-1.113 0-.67-.56-1.155-1.213-1.155-.125 0-.243.016-.36.05l-1.356.46-.443-1.347a1.228 1.228 0 0 0-1.164-.83c-.661 0-1.205.553-1.205 1.215 0 .134.025.267.067.393l.452 1.34-2.595.878-.452-1.34A1.206 1.206 0 0 0 2.838 8.8a1.213 1.213 0 0 0-1.139 1.607l.444 1.331-1.314.444A1.225 1.225 0 0 0 0 13.337c0 .67.519 1.18 1.189 1.18.134 0 .267-.025.401-.067l1.306-.452.88 2.62-1.307.444a1.225 1.225 0 0 0-.828 1.155c0 .678.51 1.18 1.188 1.18.143 0 .285-.033.419-.075l1.28-.444.46 1.365c.168.502.629.828 1.156.828.67 0 1.205-.56 1.205-1.213 0-.134-.025-.268-.067-.394l-.46-1.372 2.595-.888.46 1.381a1.211 1.211 0 0 0 2.36-.385 1.24 1.24 0 0 0-.058-.393l-.469-1.398 1.44-.494c.502-.176.779-.552.779-1.088 0-.686-.528-1.189-1.214-1.189zm-6.646 2.194l-.88-2.62 2.596-.896.879 2.637-2.595.879z"/></defs></svg>