<svg width="1440" height="491" viewBox="0 0 1440 491" xmlns="http://www.w3.org/2000/svg" xmlns:xlink="http://www.w3.org/1999/xlink"><g transform="translate(-1294 -3766)"><use xlink:href="#a" transform="translate(2014 3766)" fill="url(#b)"/><mask id="c"><use xlink:href="#a" transform="translate(2014 3766)" fill="#FFF"/></mask><g mask="url(#c)"><use xlink:href="#d" transform="translate(2146 3482.5)" fill="url(#e)" opacity=".446"/><use xlink:href="#f" transform="translate(2575 3520)" fill="url(#g)"/></g></g><g transform="translate(-1294 -3766)"><use xlink:href="#a" transform="translate(1294 3766)" fill="url(#h)"/><mask id="i"><use xlink:href="#a" transform="translate(1294 3766)" fill="#FFF"/></mask><g mask="url(#i)"><use xlink:href="#f" transform="translate(947 3991)" fill="url(#j)"/><use xlink:href="#d" transform="translate(1109 3782.5)" fill="url(#k)" opacity=".446"/><use xlink:href="#f" transform="translate(1380 3667)" fill="url(#l)" opacity=".446"/></g></g><use xlink:href="#m" transform="translate(620 154)" fill="url(#n)"/><use xlink:href="#o" transform="translate(676.66 189.91)" fill="url(#p)" opacity=".401"/><use xlink:href="#q" transform="translate(762.96 214.65)" fill="url(#r)" opacity=".1"/><use xlink:href="#s" transform="translate(646.86 197.74)" fill="url(#t)" opacity=".453"/><use xlink:href="#u" transform="translate(620 154)" fill="url(#v)" opacity=".127"/><defs><linearGradient id="b" x2="1" gradientUnits="userSpaceOnUse" gradientTransform="matrix(812.74 -793.98 1164.29 554.243 -103.952 528.518)"><stop offset="0" stop-color="#0B0B0A"/><stop offset="1" stop-color="#464F51"/></linearGradient><linearGradient id="e" x2="1" gradientUnits="userSpaceOnUse" gradientTransform="matrix(-317.379 -469.84 486.557 -306.474 527.238 516.434)"><stop offset="0" stop-color="#C8C8C8" stop-opacity=".01"/><stop offset="1" stop-color="#979797"/></linearGradient><linearGradient id="g" x2="1" gradientUnits="userSpaceOnUse" gradientTransform="rotate(140.25 3.981 138.289) scale(992.204)"><stop offset="0" stop-color="#C8C8C8" stop-opacity=".01"/><stop offset="1" stop-color="#979797"/></linearGradient><linearGradient id="h" x2="1" gradientUnits="userSpaceOnUse" gradientTransform="matrix(-812.74 793.98 -1164.29 -554.243 708.788 -265.462)"><stop offset="0" stop-color="#0B0B0A"/><stop offset="1" stop-color="#464F51"/></linearGradient><linearGradient id="j" x2="1" gradientUnits="userSpaceOnUse" gradientTransform="rotate(127.341 572.74 -91.282) scale(1214.424)"><stop offset="0" stop-color="#C8C8C8"/><stop offset="1" stop-color="#979797" stop-opacity=".01"/></linearGradient><linearGradient id="k" x2="1" gradientUnits="userSpaceOnUse" gradientTransform="matrix(0 521.378 -539.929 0 276.5 0)"><stop offset="0" stop-color="#C8C8C8"/><stop offset="1" stop-color="#979797" stop-opacity=".01"/></linearGradient><linearGradient id="l" x2="1" gradientUnits="userSpaceOnUse" gradientTransform="matrix(-553.027 719.48 -719.48 -553.027 188.5 0)"><stop offset="0" stop-color="#C8C8C8" stop-opacity=".01"/><stop offset=".012" stop-color="#C7C7C7" stop-opacity=".012"/><stop offset="1" stop-color="#979797"/></linearGradient><linearGradient id="n" x2="1" gradientUnits="userSpaceOnUse" gradientTransform="matrix(187.301 -698.437 763.43 171.355 81.148 314.891)"><stop offset="0" stop-color="#0B0B0A"/><stop offset="1" stop-color="#464F51"/></linearGradient><linearGradient id="p" x2="1" gradientUnits="userSpaceOnUse" gradientTransform="matrix(69.3446 -106.113 146.973 50.0662 0 99.028)"><stop offset="0" stop-color="#0B0B0A"/><stop offset="1" stop-color="#464F51"/></linearGradient><linearGradient id="r" x2="1" gradientUnits="userSpaceOnUse" gradientTransform="matrix(0 -49.9513 24.6112 0 16.752 73.285)"><stop offset="0" stop-color="#0B0B0A"/><stop offset="1" stop-color="#464F51"/></linearGradient><linearGradient id="t" x2="1" gradientUnits="userSpaceOnUse" gradientTransform="matrix(159.241 -277.887 277.615 159.397 0 182.311)"><stop offset="0" stop-color="#0B0B0A"/><stop offset="1" stop-color="#464F51"/></linearGradient><linearGradient id="v" x2="1" gradientUnits="userSpaceOnUse" gradientTransform="matrix(152.182 -214.129 234.055 139.226 0 174.123)"><stop offset="0" stop-color="#0B0B0A"/><stop offset="1" stop-color="#464F51"/></linearGradient><path id="a" fill-rule="evenodd" d="M0 0h720v491H0V0z"/><path id="d" d="M.847.14l-.36-.347-.694.72.36.347.694-.72zm551.306 533.72l.359.347.695-.719-.36-.348-.694.72zM.153.86l552 533 .694-.72-552-533-.694.72z"/><path id="f" d="M.146 376.146l-.353.354.707.707.354-.353-.708-.708zM377.208.499l.353-.353-.707-.707-.353.353.707.707zM.854 376.854L377.208.499l-.707-.707L.146 376.146l.708.708z"/><path id="m" fill-rule="evenodd" d="M99.9 0l-2.912.915C87.782 3.887 39.932 20.343 1.893 52.57L0 54.17l.465 2.626c.784 4.268 5.341 26.823 18.048 51.836 8.171 16.031 18.16 30.102 29.693 41.824 14.051 14.241 30.459 24.802 48.78 31.396l2.972 1.049 1.937-.752 1.031-.364c18.208-6.553 34.614-17.112 48.763-31.388 11.467-11.593 21.458-25.666 29.695-41.827 12.782-25.101 17.587-48.377 18.076-52.006h.005l.456-2.592-2.056-1.468C159.836 20.318 112.047 3.884 102.87.923L99.9 0z"/><path id="o" fill-rule="evenodd" d="M28.568 7.894C28.506 7.894 0 17.002 0 41.914c0 24.912 27.515 36.995 47.778 36.995 11.021 0 20.075-3.208 26.047-6.134.77-3.532 3.569-11.895 12.83-11.958 1.65-.065 3.2.245 4.502.989 6.197 3.347 2.169 9.605 2.169 9.605a13.962 13.962 0 0 0 1.417-.306c7.448-2.006 15.84-10.525 14.384-24.791-1.167-11.44-11.725-18.69-16.86-21.571-1.683-.943-2.783-1.42-2.783-1.42.186-1.162.246-2.06.246-2.75 0-.13-.003-.252-.006-.366v-1.339C62.772 2.518 39.964 0 28.714 0c-4.859 0-7.583.457-7.583.457l7.437 7.437zm56.95 15.491s-3.657-1.177-7.374-1.673c-1.86 1.921-3.471 2.727-3.967 2.975l-.124.123c-10.845-2.292-14.749-7.87-14.749-7.87 10.226-.061 19.46 2.355 26.213 6.445z"/><path id="q" fill-rule="evenodd" d="M9.318 14.072c0 8.12-3.345 15.617-9.047 21.69L0 36.073h.457c1.549-.063 3.098.246 4.4.99 6.197 3.347 2.169 9.605 2.169 9.605 7.746-1.24 17.351-9.914 15.802-25.097C21.66 10.13 11.101 2.88 5.966 0a31.046 31.046 0 0 1 3.352 14.072"/><path id="s" fill-rule="evenodd" d="M0 59.428c0 1.005.039 1.962.095 2.897 7.67 14.75 16.894 27.635 27.446 38.305 13.159 13.278 28.47 23.129 45.52 29.29 16.987-6.139 32.299-16.012 45.522-29.354 3.92-3.963 7.658-8.247 11.21-12.825-28.27-2.032-26.553-19.203-26.553-19.203 0-.681 0-1.364.124-2.045 0 0 .062-.603.268-1.55-5.972 2.927-15.026 6.135-26.047 6.135-20.264 0-47.778-12.084-47.778-36.995C29.806 9.17 58.311.063 58.311.063l-.015-.005C57.575.002 56.8 0 56.081 0 24.911 1.116 0 27.266 0 59.428"/><path id="u" fill-rule="evenodd" d="M99.9 0l-2.912.915C87.782 3.887 39.932 20.343 1.893 52.57L0 54.17l.465 2.626c.784 4.268 5.341 26.823 18.048 51.836 8.171 16.031 18.16 30.102 29.693 41.824 14.051 14.241 30.459 24.802 48.78 31.396l2.972 1.049 1.937-.752 1.031-.364c18.208-6.553 34.614-17.112 48.763-31.388 11.467-11.593 21.458-25.666 29.695-41.827 12.782-25.101 17.587-48.377 18.076-52.006h.005l.456-2.592-2.056-1.468C159.836 20.318 112.047 3.884 102.87.923L99.9 0zM54.399 144.37c-10.861-10.983-20.323-24.306-28.123-39.602C15.524 83.71 10.913 64.731 9.437 57.591c36.03-29.746 80.085-45.128 90.478-48.49 10.445 3.408 54.72 18.972 90.482 48.489-1.489 7.117-6.123 26.018-16.836 47.054-7.843 15.381-17.305 28.725-28.121 39.662-13.222 13.342-28.535 23.215-45.521 29.354-17.05-6.16-32.361-16.012-45.52-29.29z"/></defs></svg>