<svg width="768" height="880" viewBox="0 0 768 880" xmlns="http://www.w3.org/2000/svg" xmlns:xlink="http://www.w3.org/1999/xlink"><defs><linearGradient x1="-14.438%" y1="107.641%" x2="98.443%" y2="-54.066%" id="b"><stop stop-color="#0B0B0A" offset="0%"/><stop stop-color="#464F51" offset="100%"/></linearGradient><path id="a" d="M0 0h768v440H0z"/><linearGradient x1="95.341%" y1="96.71%" x2="37.949%" y2="8.725%" id="d"><stop stop-color="#C8C8C8" stop-opacity="0" offset="0%"/><stop stop-color="#979797" offset="100%"/></linearGradient><linearGradient x1="25.323%" y1="64.209%" x2="-177.025%" y2="232.498%" id="e"><stop stop-color="#C8C8C8" stop-opacity="0" offset="0%"/><stop stop-color="#979797" offset="100%"/></linearGradient><linearGradient x1="98.443%" y1="-54.066%" x2="-14.438%" y2="107.641%" id="g"><stop stop-color="#0B0B0A" offset="0%"/><stop stop-color="#464F51" offset="100%"/></linearGradient><path id="f" d="M0 0h768v440H0z"/><linearGradient x1="224.819%" y1="-159.682%" x2="29.43%" y2="96.423%" id="i"><stop stop-color="#C8C8C8" offset="0%"/><stop stop-color="#979797" stop-opacity="0" offset="100%"/></linearGradient><linearGradient x1="50%" y1="0%" x2="50%" y2="97.636%" id="j"><stop stop-color="#C8C8C8" offset="0%"/><stop stop-color="#979797" stop-opacity="0" offset="100%"/></linearGradient><linearGradient x1="50%" y1="0%" x2="-96.692%" y2="190.844%" id="k"><stop stop-color="#C8C8C8" stop-opacity="0" offset="0%"/><stop stop-color="#C7C7C7" stop-opacity=".012" offset="1.236%"/><stop stop-color="#979797" offset="100%"/></linearGradient></defs><g fill="none" fill-rule="evenodd"><g transform="translate(0 440)"><mask id="c" fill="#fff"><use xlink:href="#a"/></mask><use fill="url(#b)" xlink:href="#a"/><g mask="url(#c)" stroke-linecap="square"><path d="M.5 1l552 533" stroke="url(#d)" opacity=".446" transform="translate(180 -284)"/><path d="M429.5 414.5L805.854 38.146" stroke="url(#e)" transform="translate(180 -284)"/></g></g><mask id="h" fill="#fff"><use xlink:href="#f"/></mask><use fill="url(#g)" xlink:href="#f"/><g mask="url(#h)" stroke-linecap="square"><path d="M.5 700.5l376.354-376.354" stroke="url(#i)" transform="translate(-347 -99)"/><path d="M162.5 116l552 533" stroke="url(#j)" opacity=".446" transform="translate(-347 -99)"/><path d="M433.5 376.5L809.854.146" stroke="url(#k)" opacity=".446" transform="translate(-347 -99)"/></g></g></svg>