<svg width="200" height="183" viewBox="0 0 200 183" xmlns="http://www.w3.org/2000/svg"><defs><linearGradient x1="40.59%" y1="172.164%" x2="134.278%" y2="-209.701%" id="a"><stop stop-color="#0B0B0A" offset="0%"/><stop stop-color="#464F51" offset="100%"/></linearGradient><linearGradient x1="0%" y1="125.497%" x2="63.448%" y2="-8.979%" id="b"><stop stop-color="#0B0B0A" offset="0%"/><stop stop-color="#464F51" offset="100%"/></linearGradient><linearGradient x1="72.854%" y1="157.035%" x2="72.854%" y2="50%" id="c"><stop stop-color="#0B0B0A" offset="0%"/><stop stop-color="#464F51" offset="100%"/></linearGradient><linearGradient x1="0%" y1="140.325%" x2="122.689%" y2="-73.565%" id="d"><stop stop-color="#0B0B0A" offset="0%"/><stop stop-color="#464F51" offset="100%"/></linearGradient><linearGradient x1="0%" y1="95.2%" x2="76.121%" y2="-21.873%" id="e"><stop stop-color="#0B0B0A" offset="0%"/><stop stop-color="#464F51" offset="100%"/></linearGradient></defs><g fill="none" fill-rule="evenodd"><path d="M99.9 0l-2.912.915C87.782 3.887 39.932 20.343 1.893 52.57L0 54.17l.465 2.626c.784 4.268 5.341 26.823 18.048 51.836 8.171 16.031 18.16 30.102 29.693 41.824 14.051 14.241 30.459 24.802 48.78 31.396l2.972 1.05 1.937-.753 1.03-.364c18.209-6.553 34.615-17.112 48.764-31.388 11.467-11.593 21.458-25.666 29.695-41.827 12.782-25.102 17.587-48.377 18.076-52.006h.005l.456-2.592-2.056-1.468C159.836 20.318 112.047 3.884 102.87.923L99.9 0z" fill="url(#a)"/><path d="M85.23 43.803c-.061 0-28.567 9.109-28.567 34.02 0 24.912 27.515 36.995 47.778 36.995 11.021 0 20.075-3.208 26.047-6.134.77-3.531 3.569-11.895 12.83-11.958 1.651-.064 3.2.246 4.502.99 6.197 3.346 2.17 9.604 2.17 9.604a13.943 13.943 0 0 0 1.416-.306c7.448-2.006 15.84-10.525 14.385-24.791-1.167-11.44-11.726-18.69-16.862-21.57-1.681-.944-2.782-1.42-2.782-1.42.186-1.162.246-2.061.246-2.751 0-.13-.002-.251-.006-.365v-1.34c-26.952-16.35-49.76-18.868-61.01-18.868-4.859 0-7.582.457-7.582.457l7.436 7.437zm56.95 15.491s-3.656-1.177-7.373-1.673c-1.86 1.921-3.471 2.727-3.967 2.975l-.124.124c-10.844-2.293-14.748-7.87-14.748-7.87 10.225-.062 19.458 2.354 26.212 6.444z" fill="url(#b)" opacity=".401"/><path d="M152.281 74.725c0 8.118-3.345 15.616-9.047 21.689l-.271.312.457-.002c1.549-.062 3.098.248 4.4.991 6.197 3.347 2.17 9.605 2.17 9.605 7.745-1.239 17.35-9.914 15.8-25.097-1.166-11.44-11.725-18.69-16.86-21.57a31.046 31.046 0 0 1 3.351 14.072" fill="url(#c)" opacity=".1"/><path d="M26.857 103.168c0 1.006.039 1.962.095 2.897 7.669 14.75 16.894 27.635 27.446 38.305 13.159 13.278 28.47 23.13 45.52 29.29 16.986-6.139 32.299-16.012 45.521-29.353a141.977 141.977 0 0 0 11.21-12.826c-28.27-2.032-26.553-19.203-26.553-19.203 0-.681 0-1.363.124-2.045 0 0 .063-.603.269-1.55-5.972 2.927-15.026 6.135-26.048 6.135-20.263 0-47.778-12.083-47.778-36.995 0-24.911 28.506-34.02 28.506-34.02l-.015-.005a29.86 29.86 0 0 0-2.216-.058c-31.17 1.116-56.081 27.267-56.081 59.428" fill="url(#d)" opacity=".453"/><path d="M99.9 0l-2.912.915C87.782 3.887 39.932 20.343 1.893 52.57L0 54.17l.465 2.626c.784 4.268 5.341 26.823 18.048 51.836 8.171 16.031 18.16 30.102 29.693 41.824 14.051 14.241 30.459 24.802 48.78 31.396l2.972 1.05 1.937-.753 1.03-.364c18.209-6.553 34.615-17.112 48.764-31.388 11.467-11.593 21.458-25.666 29.695-41.827 12.782-25.102 17.587-48.377 18.076-52.006h.005l.456-2.592-2.056-1.468C159.836 20.318 112.047 3.884 102.87.923L99.9 0zM54.399 144.37c-10.861-10.983-20.322-24.306-28.123-39.602C15.523 83.71 10.912 64.732 9.436 57.59 45.466 27.844 89.521 12.462 99.914 9.1c10.445 3.408 54.72 18.972 90.482 48.489-1.489 7.117-6.123 26.018-16.836 47.055-7.843 15.38-17.305 28.724-28.12 39.662-13.223 13.341-28.536 23.214-45.522 29.353-17.05-6.16-32.361-16.012-45.52-29.29z" fill="url(#e)" opacity=".127"/></g></svg>